<svg xmlns="http://www.w3.org/2000/svg" width="960" height="660" viewBox="0 0 960 660"><rect width="100%" height="100%" fill="white"/><style>text{font-family:Segoe UI,Arial;font-size:12px}.price{fill:none;stroke:#1f77b4;stroke-width:2}.score{fill:none;stroke:#d62728;stroke-width:2}.threshold{stroke:#777;stroke-dasharray:5 4}.signal-day{stroke:#111;stroke-dasharray:2 3}</style><text x="48" y="20">0825_EX04病灶 2021-06-16（发现）</text><polyline class="price" points="48.00,184.83 91.20,177.60 134.40,175.53 177.60,190.00 220.80,172.43 264.00,135.22 307.20,138.32 350.40,106.28 393.60,113.52 436.80,56.67 480.00,36.00 523.20,73.21 566.40,86.64 609.60,65.97 652.80,62.87 696.00,77.34 739.20,68.04 782.40,45.30 825.60,55.64 868.80,45.30 912.00,87.68"/><polyline class="score" points="48.00,80.85 91.20,80.85 134.40,48.81 177.60,106.72 220.80,68.03 264.00,87.25 307.20,87.25 350.40,36.00 393.60,87.25 436.80,36.00 480.00,36.00 523.20,68.03 566.40,113.12 609.60,97.07 652.80,51.98 696.00,113.12 739.20,36.00 782.40,36.00 825.60,61.63 868.80,87.25 912.00,190.00"/><line class="threshold" x1="48" x2="912" y1="189.55" y2="189.55"/><line class="signal-day" x1="912.00" x2="912.00" y1="36" y2="190"/><text x="48" y="208">T-20</text><text x="900" y="208">T</text><text x="48" y="240">0825_EX04病灶 2021-07-06（发现）</text><polyline class="price" points="48.00,390.24 91.20,401.76 134.40,394.35 177.60,376.24 220.80,384.47 264.00,376.24 307.20,410.00 350.40,355.65 393.60,335.88 436.80,307.88 480.00,313.65 523.20,306.24 566.40,326.82 609.60,299.65 652.80,279.88 696.00,279.06 739.20,256.00 782.40,266.71 825.60,301.29 868.80,266.71 912.00,302.12"/><polyline class="score" points="48.00,271.98 91.20,333.12 134.40,256.00 177.60,256.00 220.80,281.63 264.00,307.25 307.20,410.00 350.40,307.25 393.60,256.00 436.80,256.00 480.00,256.00 523.20,256.00 566.40,333.12 609.60,288.03 652.80,256.00 696.00,271.98 739.20,256.00 782.40,256.00 825.60,371.56 868.80,256.00 912.00,410.00"/><line class="threshold" x1="48" x2="912" y1="409.55" y2="409.55"/><line class="signal-day" x1="912.00" x2="912.00" y1="256" y2="410"/><text x="48" y="428">T-20</text><text x="900" y="428">T</text><text x="48" y="460">0825_EX04病灶 2023-02-08（确认）</text><polyline class="price" points="48.00,627.63 91.20,603.94 134.40,587.35 177.60,589.72 220.80,589.72 264.00,625.26 307.20,630.00 350.40,620.52 393.60,577.88 436.80,554.18 480.00,547.08 523.20,504.43 566.40,492.58 609.60,487.85 652.80,502.06 696.00,494.95 739.20,485.48 782.40,476.00 825.60,509.17 868.80,518.65 912.00,535.23"/><polyline class="score" points="48.00,528.35 91.20,476.00 134.40,476.00 177.60,508.72 220.80,528.35 264.00,594.05 307.20,577.65 350.40,630.00 393.60,590.44 436.80,590.44 480.00,538.09 523.20,538.09 566.40,538.09 609.60,538.09 652.80,508.72 696.00,492.32 739.20,528.35 782.40,544.67 825.60,561.33 868.80,577.65 912.00,620.22"/><line class="threshold" x1="48" x2="912" y1="619.77" y2="619.77"/><line class="signal-day" x1="912.00" x2="912.00" y1="476" y2="630"/><text x="48" y="648">T-20</text><text x="900" y="648">T</text></svg>
